<?xml version="1.0" standalone="no"?>
<!DOCTYPE svg PUBLIC "-//W3C//DTD SVG 20010904//EN"
 "http://www.w3.org/TR/2001/REC-SVG-20010904/DTD/svg10.dtd">
<svg version="1.0" xmlns="http://www.w3.org/2000/svg"
 width="85px" height="85px" viewBox="0 0 822.000000 822.000000"
 preserveAspectRatio="xMidYMid meet">

<g transform="translate(0.000000,822.000000) scale(0.100000,-0.100000)"
fill="#000000" stroke="none">
<path d="M1540 7426 c-97 -27 -161 -80 -207 -169 -21 -42 -27 -70 -31 -148
l-5 -96 -111 -6 c-123 -5 -193 -26 -281 -82 -66 -42 -153 -138 -187 -205 -62
-125 -58 67 -58 -2695 0 -1667 4 -2535 11 -2564 46 -203 211 -363 417 -406 65
-13 423 -15 2987 -15 3206 0 2989 -4 3122 61 69 33 154 106 197 167 15 22 42
73 59 114 l32 73 3 2544 c2 2790 6 2596 -56 2721 -34 67 -121 163 -187 205
-88 56 -158 77 -281 82 l-111 6 -5 96 c-6 109 -31 173 -93 236 -72 71 -189
108 -278 86 -168 -42 -257 -160 -257 -342 l0 -79 -2005 -2 -2004 -3 -22 -21
c-13 -13 -23 -39 -26 -67 -5 -41 -2 -49 25 -77 l30 -30 2001 0 2001 0 0 -85
c0 -115 26 -183 96 -251 58 -57 145 -94 219 -94 72 0 161 37 214 89 70 68 93
125 99 245 l4 99 97 -6 c117 -6 174 -29 241 -97 85 -84 93 -114 98 -347 l4
-203 -284 0 c-247 0 -287 -2 -308 -16 -39 -26 -50 -45 -50 -87 0 -29 7 -45 29
-68 l29 -29 291 0 291 0 -2 -2237 -3 -2238 -27 -51 c-37 -70 -70 -108 -122
-138 -102 -60 107 -56 -3061 -56 -3168 0 -2959 -4 -3061 56 -54 32 -90 73
-123 144 l-26 55 0 2230 0 2230 2753 5 2754 5 24 28 c40 47 28 119 -26 150
-26 16 -230 17 -2769 17 l-2741 0 0 180 c0 220 15 282 89 359 71 75 136 103
252 109 l97 5 4 -99 c6 -121 28 -175 97 -243 55 -54 143 -91 216 -91 75 0 164
38 221 95 87 87 94 117 94 429 0 235 -2 269 -20 320 -36 105 -109 172 -222
202 -63 16 -88 16 -148 0z m138 -212 c48 -33 52 -57 52 -299 0 -242 -6 -277
-51 -309 -29 -20 -98 -21 -125 -1 -48 33 -54 68 -54 304 0 238 6 273 51 305
30 20 98 21 127 0z m4921 0 c45 -32 51 -67 51 -305 0 -236 -6 -271 -54 -304
-27 -20 -96 -19 -125 1 -45 32 -51 67 -51 309 0 242 4 266 52 299 29 21 97 20
127 0z"/>
<path d="M6150 5520 c-168 -88 -306 -164 -308 -170 -3 -8 140 -292 220 -437
12 -23 21 -44 18 -46 -11 -11 -841 -439 -844 -436 -1 2 -67 128 -146 279 -151
291 -189 360 -197 360 -13 0 -133 -73 -133 -81 0 -5 27 -61 60 -124 33 -63 60
-121 60 -127 0 -7 -35 -31 -78 -53 -42 -22 -210 -110 -372 -194 -162 -84 -378
-197 -480 -251 -102 -54 -255 -134 -340 -177 -85 -44 -249 -130 -365 -190
-115 -61 -334 -174 -485 -253 -151 -78 -281 -147 -288 -154 -11 -11 -1 -38 60
-154 40 -77 71 -142 68 -144 -3 -3 -115 -62 -250 -133 -135 -70 -247 -129
-249 -130 -1 -2 32 -71 74 -154 43 -82 75 -156 72 -163 -4 -10 -337 -182 -552
-286 -16 -8 -169 -87 -340 -175 l-309 -161 118 -38 119 -38 121 64 c67 35 258
135 426 221 168 86 351 182 406 211 l102 54 77 -147 c42 -82 81 -152 85 -157
5 -4 118 48 253 118 135 69 249 126 254 126 5 0 40 -59 78 -131 38 -72 74
-133 81 -136 13 -5 165 70 456 223 101 53 305 159 453 236 306 159 648 339
654 344 4 4 -66 154 -72 154 -3 0 -200 -102 -1014 -526 -215 -112 -395 -204
-400 -204 -4 0 -20 22 -34 48 -46 84 -519 991 -519 996 0 3 80 46 178 97 97
50 227 118 289 150 61 33 116 59 121 59 6 0 45 -66 87 -147 43 -82 79 -150 81
-152 5 -5 144 60 150 70 2 4 -32 75 -76 160 -44 84 -77 156 -73 159 13 11 345
182 346 178 1 -2 10 -18 20 -36 9 -19 61 -117 114 -218 53 -102 99 -183 103
-182 39 17 140 75 140 81 0 7 -192 376 -216 414 -13 21 -9 24 162 114 97 50
179 87 184 83 5 -5 40 -70 79 -144 39 -74 75 -141 80 -149 7 -11 23 -6 80 25
39 21 71 42 71 47 0 4 -36 75 -79 158 -79 149 -79 150 -58 163 67 43 492 255
498 249 14 -16 539 -1025 539 -1036 0 -7 -90 -58 -200 -115 -110 -57 -200
-106 -200 -109 0 -12 76 -143 83 -143 5 0 95 45 200 100 105 55 196 100 202
100 5 0 39 -56 75 -125 36 -69 70 -125 75 -125 16 -1 135 64 135 74 0 5 -33
72 -74 150 -40 77 -113 216 -161 309 -48 92 -85 173 -82 180 2 6 74 48 158 91
85 43 163 87 174 96 22 19 495 264 499 258 2 -2 58 -108 125 -235 68 -128 128
-233 135 -233 6 0 38 13 71 29 33 16 97 46 142 67 l83 38 36 109 c20 59 34
110 31 113 -3 3 -69 -27 -148 -66 -135 -68 -144 -71 -156 -54 -21 28 -96 172
-428 814 -81 157 -165 317 -186 356 -41 76 -44 84 -30 84 5 0 82 39 171 86 89
47 164 83 166 81 5 -5 31 -55 154 -292 119 -231 270 -515 274 -515 2 0 34 17
72 38 43 24 68 44 66 53 -2 8 -112 222 -244 477 -169 324 -245 462 -257 462
-9 -1 -153 -73 -321 -160z m84 -952 c42 -78 74 -143 73 -145 -2 -1 -122 -65
-268 -142 -145 -77 -331 -175 -414 -219 l-150 -79 -72 136 c-40 75 -73 141
-73 146 0 6 28 25 63 43 34 17 220 115 412 216 193 102 351 186 352 186 1 0
36 -64 77 -142z m-3405 -1830 l102 -197 -173 -90 c-133 -69 -176 -87 -184 -78
-15 16 -247 458 -242 462 1 1 81 43 177 93 l174 90 22 -42 c12 -22 67 -130
124 -238z"/>
<path d="M6982 4534 l-73 -33 40 -78 c22 -43 53 -102 69 -132 l30 -54 35 113
36 113 -24 48 c-14 26 -28 50 -32 52 -5 3 -41 -10 -81 -29z"/>
<path d="M4891 3195 c-36 -19 -69 -39 -74 -44 -8 -8 0 -28 35 -86 7 -11 18
-30 26 -43 l12 -22 71 36 c57 28 69 39 64 52 -4 9 -16 39 -26 67 -30 78 -34
79 -108 40z"/>
</g>
</svg>
